<?xml version="1.0" standalone="no"?>
<!DOCTYPE svg PUBLIC "-//W3C//DTD SVG 20010904//EN"
 "http://www.w3.org/TR/2001/REC-SVG-20010904/DTD/svg10.dtd">
<svg version="1.0" xmlns="http://www.w3.org/2000/svg"
 width="520.000000pt" height="520.000000pt" viewBox="0 0 520.000000 520.000000"
 preserveAspectRatio="xMidYMid meet">
<metadata>
Created by potrace 1.11, written by Peter Selinger 2001-2013
</metadata>
<g transform="translate(0.000000,520.000000) scale(0.100000,-0.100000)"
fill="#000000" stroke="none">
<path d="M2266 5184 c-465 -60 -931 -260 -1306 -560 -104 -83 -294 -272 -376
-374 -310 -383 -510 -850 -569 -1330 -20 -163 -20 -477 0 -640 29 -231 91
-466 182 -682 42 -100 47 -108 72 -108 28 0 1769 165 1852 176 39 5 52 12 79
45 61 76 96 224 79 332 -15 93 -52 161 -143 255 -117 122 -122 124 -182 106
-107 -34 -308 4 -472 89 l-63 33 69 -4 c61 -4 75 -1 130 27 34 17 62 35 62 40
0 5 -26 15 -57 21 -116 22 -191 51 -265 99 -153 99 -323 300 -464 546 l-28 50
43 -38 c64 -58 170 -123 252 -156 41 -16 75 -28 77 -26 2 2 -45 64 -105 137
-265 323 -393 525 -458 724 -35 106 -31 117 13 48 87 -132 225 -227 377 -258
39 -8 129 -17 200 -21 l130 -6 -80 43 c-104 55 -205 153 -229 223 -28 81 -31
186 -8 299 12 54 23 100 25 103 3 2 33 -26 68 -62 91 -95 180 -137 300 -143
106 -5 162 5 352 62 78 24 158 47 177 50 62 12 90 27 90 48 0 10 -18 45 -40
76 -42 60 -65 130 -39 120 297 -122 327 -128 669 -148 182 -11 310 -34 379
-69 62 -32 100 -69 107 -106 4 -23 29 -57 86 -115 145 -149 174 -219 188 -455
5 -82 10 -156 10 -162 0 -7 6 -13 14 -13 9 0 12 -7 9 -20 -8 -31 38 -90 160
-203 114 -107 142 -145 131 -179 -3 -11 -30 -47 -60 -79 -30 -32 -54 -65 -54
-72 0 -7 20 -33 45 -57 25 -25 45 -53 45 -65 0 -24 -27 -52 -77 -81 -18 -10
-33 -21 -33 -24 0 -4 14 -13 32 -21 17 -8 40 -26 51 -40 23 -32 12 -61 -32
-84 -40 -20 -44 -38 -20 -98 28 -69 23 -159 -10 -205 -41 -58 -68 -65 -246
-67 -140 -1 -167 -3 -216 -23 -30 -12 -69 -36 -85 -53 -26 -27 -29 -37 -29
-93 0 -90 31 -133 127 -180 86 -42 180 -60 402 -77 328 -26 816 34 1330 163
89 22 168 44 177 49 20 10 53 160 74 334 20 157 19 475 0 635 -59 475 -256
940 -561 1320 -87 109 -275 297 -384 384 -380 305 -845 502 -1320 561 -155 19
-502 18 -654 -1z"/>
<path d="M4690 1505 c-490 -61 -940 -202 -1890 -595 -640 -265 -864 -343
-1095 -386 -123 -22 -262 -16 -329 16 -128 61 -113 197 46 411 68 91 278 307
396 407 52 45 67 62 52 62 -29 0 -487 -85 -680 -126 -385 -83 -720 -170 -720
-188 0 -23 175 -233 289 -347 393 -392 883 -642 1446 -736 159 -26 631 -26
790 0 815 136 1490 609 1889 1323 30 54 62 116 71 137 l15 37 -87 -1 c-49 -1
-135 -7 -193 -14z"/>
</g>
</svg>
